# This file uses centimeters as units for non-parametric coordinates.

mtllib cobweb.mtl
g default
v -9.991495 -0.129477 9.990111
v -7.997614 -0.233244 9.994446
v -6.001695 -0.320222 9.998010
v -4.002845 -0.371767 9.999937
v -2.001067 -0.399226 10.000657
v 0.002047 -0.420267 10.000984
v 2.004209 -0.432827 10.000879
v 4.004096 -0.425753 9.999960
v 6.001354 -0.377915 9.997571
v 7.995878 -0.265142 9.993262
v 9.988864 -0.119329 9.988467
v -9.996617 -0.236130 7.996878
v -8.003396 -0.385679 8.002619
v -6.006946 -0.508597 8.006793
v -4.006486 -0.589984 8.008980
v -2.002643 -0.633924 8.009817
v 0.002290 -0.644250 8.009581
v 2.006181 -0.627897 8.008437
v 4.007931 -0.593661 8.006690
v 6.006874 -0.542108 8.004214
v 8.002414 -0.441888 8.000197
v 9.994249 -0.263569 7.994587
v -10.000754 -0.322275 6.001957
v -8.007547 -0.506485 6.007816
v -6.010026 -0.662391 6.011480
v -4.007978 -0.764963 6.013157
v -2.003079 -0.808850 6.013673
v 0.002219 -0.812440 6.013258
v 2.006751 -0.787840 6.012027
v 4.009934 -0.731514 6.009956
v 6.010596 -0.654249 6.007121
v 8.007547 -0.552360 6.003456
v 9.999904 -0.386100 5.998703
v -10.003456 -0.373003 4.004190
v -8.010293 -0.592018 4.009170
v -6.011890 -0.776228 4.011866
v -4.008956 -0.885077 4.012922
v -2.003679 -0.913841 4.013154
v 0.001832 -0.906399 4.012968
v 2.007011 -0.891384 4.012023
v 4.011384 -0.840238 4.009741
v 6.013415 -0.742739 4.006545
v 8.011194 -0.616060 4.003266
v 10.004000 -0.451516 3.999885
v -10.004693 -0.388724 2.003420
v -8.011944 -0.634406 2.006356
v -6.013367 -0.834715 2.007920
v -4.010359 -0.945266 2.008514
v -2.004995 -0.962605 2.008691
v 0.001252 -0.942464 2.008580
v 2.007380 -0.930237 2.007605
v 4.012860 -0.893067 2.005240
v 6.015549 -0.791836 2.002447
v 8.013319 -0.642040 2.000591
v 10.006029 -0.466062 1.999111
v -10.004386 -0.378514 0.001014
v -8.012359 -0.631716 0.000802
v -6.014527 -0.836273 0.000558
v -4.012142 -0.953117 0.000434
v -2.006567 -0.978323 0.000076
v 0.000641 -0.956271 -0.000387
v 2.007789 -0.932526 -0.001185
v 4.013587 -0.888531 -0.002558
v 6.016004 -0.781247 -0.003208
v 8.013301 -0.619007 -0.002739
v 10.005779 -0.437097 -0.002013
v -10.002520 -0.346537 -2.000721
v -8.011106 -0.594429 -2.003872
v -6.014289 -0.794840 -2.006423
v -4.012886 -0.919451 -2.008185
v -2.007648 -0.965240 -2.009557
v -0.000078 -0.951988 -2.010217
v 2.007286 -0.910393 -2.010041
v 4.012565 -0.836874 -2.009274
v 6.014213 -0.713445 -2.007512
v 8.011006 -0.547887 -2.004818
v 10.003416 -0.372602 -2.002142
v -9.999074 -0.284438 -4.000086
v -8.007915 -0.514433 -4.005007
v -6.011868 -0.707852 -4.009240
v -4.011355 -0.835414 -4.012279
v -2.007091 -0.894271 -4.014195
v -0.000359 -0.890941 -4.014694
v 2.006142 -0.837724 -4.013728
v 4.010380 -0.740424 -4.011615
v 6.010895 -0.603256 -4.008398
v 8.007036 -0.443632 -4.004405
v 9.999312 -0.282454 -4.000341
v -9.994266 -0.189966 -5.996733
v -8.002863 -0.381969 -6.002320
v -6.007624 -0.562114 -6.007483
v -4.008079 -0.687556 -6.011248
v -2.005033 -0.748004 -6.013391
v 0.000133 -0.745296 -6.013710
v 2.004994 -0.687740 -6.012301
v 4.007490 -0.586018 -6.009552
v 6.006451 -0.455232 -6.005631
v 8.001623 -0.314510 -6.000860
v 9.993837 -0.174934 -5.996148
v -9.989383 -0.090123 -7.991384
v -7.996529 -0.218033 -7.996049
v -6.001749 -0.360622 -8.001273
v -4.003497 -0.471814 -8.005498
v -2.002119 -0.526268 -8.007854
v 0.000872 -0.522759 -8.008113
v 2.003326 -0.472313 -8.006496
v 4.003504 -0.388295 -8.003356
v 6.000662 -0.283729 -7.999052
v 7.995162 -0.170755 -7.994330
v 9.988641 -0.075871 -7.990583
v -9.986219 -0.024679 -9.986089
v -7.991065 -0.077718 -9.988362
v -5.995570 -0.155069 -9.991693
v -3.998353 -0.228139 -9.994958
v -1.999145 -0.271191 -9.997042
v 0.001018 -0.275245 -9.997380
v 2.000622 -0.245415 -9.996066
v 3.998607 -0.191206 -9.993486
v 5.994896 -0.122838 -9.990247
v 7.990240 -0.059535 -9.987373
v 9.985757 -0.017234 -9.985657
vt 0.996850 0.997351
vt 0.897639 0.997606
vt 0.897924 0.898395
vt 0.997066 0.898107
vt 0.798343 0.997812
vt 0.798635 0.898602
vt 0.898133 0.799023
vt 0.997244 0.798762
vt 0.698906 0.997946
vt 0.699154 0.898739
vt 0.798818 0.799177
vt 0.898242 0.699452
vt 0.997339 0.699271
vt 0.599320 0.998008
vt 0.599467 0.898820
vt 0.699289 0.799269
vt 0.798901 0.699526
vt 0.898283 0.599713
vt 0.997375 0.599634
vt 0.499652 0.997993
vt 0.499641 0.898841
vt 0.599544 0.799343
vt 0.699341 0.699575
vt 0.798927 0.599734
vt 0.898271 0.499919
vt 0.997391 0.499931
vt 0.400017 0.997900
vt 0.399861 0.898779
vt 0.499629 0.799401
vt 0.599573 0.699645
vt 0.699353 0.599764
vt 0.798905 0.499923
vt 0.898214 0.400177
vt 0.997386 0.400276
vt 0.300500 0.997728
vt 0.300255 0.898620
vt 0.399734 0.799389
vt 0.499623 0.699734
vt 0.599583 0.599830
vt 0.699344 0.499942
vt 0.798845 0.400149
vt 0.898128 0.300542
vt 0.997341 0.300733
vt 0.201119 0.997489
vt 0.200842 0.898369
vt 0.300045 0.799268
vt 0.399646 0.699771
vt 0.499605 0.599908
vt 0.599577 0.499970
vt 0.699296 0.400136
vt 0.798742 0.300442
vt 0.898005 0.201045
vt 0.997222 0.201321
vt 0.101837 0.997246
vt 0.101605 0.898053
vt 0.200584 0.799057
vt 0.299893 0.699695
vt 0.399577 0.599962
vt 0.499582 0.500001
vt 0.599528 0.400118
vt 0.699182 0.300370
vt 0.798601 0.200861
vt 0.897804 0.101720
vt 0.997007 0.102045
vt 0.002553 0.997088
vt 0.002439 0.897781
vt 0.101345 0.798765
vt 0.200397 0.699532
vt 0.299799 0.599934
vt 0.399544 0.500037
vt 0.499542 0.400097
vt 0.599410 0.300297
vt 0.699023 0.200721
vt 0.798418 0.101464
vt 0.897526 0.002578
vt 0.996768 0.002846
vt 0.002273 0.798457
vt 0.101135 0.699303
vt 0.200290 0.599832
vt 0.299774 0.500051
vt 0.399554 0.400121
vt 0.499474 0.300260
vt 0.599272 0.200614
vt 0.698860 0.101282
vt 0.798182 0.002297
vt 0.002111 0.699047
vt 0.101018 0.599687
vt 0.200274 0.500026
vt 0.299821 0.400178
vt 0.399591 0.300311
vt 0.499441 0.200591
vt 0.599180 0.101177
vt 0.698692 0.002093
vt 0.002007 0.599539
vt 0.101005 0.499989
vt 0.200345 0.400236
vt 0.299927 0.300420
vt 0.399679 0.200680
vt 0.499465 0.101178
vt 0.599106 0.001992
vt 0.001991 0.499982
vt 0.101085 0.400319
vt 0.200481 0.300563
vt 0.300087 0.200846
vt 0.399813 0.101292
vt 0.499502 0.002004
vt 0.002056 0.400453
vt 0.101241 0.300763
vt 0.200677 0.201067
vt 0.300286 0.101490
vt 0.399946 0.002121
vt 0.002184 0.301006
vt 0.101455 0.201355
vt 0.200914 0.101759
vt 0.300487 0.002326
vt 0.002345 0.201642
vt 0.101690 0.102080
vt 0.201149 0.002598
vt 0.002489 0.102326
vt 0.101877 0.002857
vt 0.002574 0.003001
vn -0.063436 -0.995872 0.064920
vn -0.073477 -0.995589 0.058349
vn -0.067260 -0.995439 0.067664
vn -0.057950 -0.995489 0.075122
vn -0.050275 -0.995163 0.084399
vn -0.042802 -0.994703 0.093456
vn -0.029650 -0.994939 0.096003
vn -0.025443 -0.993899 0.107320
vn -0.012707 -0.994896 0.100099
vn -0.012764 -0.993430 0.113725
vn -0.000005 -0.995319 0.096647
vn -0.003407 -0.993978 0.109526
vn 0.011042 -0.996068 0.087901
vn 0.005649 -0.995202 0.097674
vn 0.022514 -0.996726 0.077654
vn 0.017597 -0.996063 0.086886
vn 0.040245 -0.996619 0.071626
vn 0.039075 -0.995686 0.084158
vn 0.067774 -0.995251 0.069867
vn 0.067165 -0.994305 0.082747
vn 0.083600 -0.994090 0.069257
vn 0.081021 -0.993478 0.080227
vn -0.092096 -0.994825 0.042901
vn -0.084645 -0.995103 0.051049
vn -0.063233 -0.995900 0.064693
vn -0.034614 -0.996877 0.070978
vn -0.010606 -0.997512 0.069702
vn 0.004411 -0.997768 0.066635
vn 0.017392 -0.997757 0.064643
vn 0.031326 -0.997721 0.059767
vn 0.045900 -0.997625 0.051365
vn 0.069171 -0.996540 0.046085
vn 0.084464 -0.995397 0.045291
vn -0.108271 -0.993826 0.024247
vn -0.099266 -0.994583 0.030848
vn -0.071983 -0.996575 0.040695
vn -0.034235 -0.998496 0.042820
vn -0.005435 -0.999242 0.038538
vn 0.006134 -0.999379 0.034698
vn 0.016390 -0.999219 0.035955
vn 0.035522 -0.998661 0.037621
vn 0.054855 -0.997953 0.032864
vn 0.073523 -0.996985 0.024824
vn 0.083949 -0.996244 0.021232
vn -0.120034 -0.992754 0.005638
vn -0.109149 -0.993984 0.009047
vn -0.076993 -0.996930 0.014209
vn -0.033368 -0.999311 0.016250
vn -0.001173 -0.999881 0.015379
vn 0.008290 -0.999884 0.012789
vn 0.014508 -0.999831 0.011244
vn 0.035958 -0.999293 0.010993
vn 0.062117 -0.998037 0.008018
vn 0.080371 -0.996763 0.001910
vn 0.087295 -0.996182 -0.001397
vn -0.124519 -0.992165 -0.010220
vn -0.112668 -0.993582 -0.010058
vn -0.079650 -0.996782 -0.009018
vn -0.036302 -0.999326 -0.005506
vn -0.002246 -0.999997 -0.000683
vn 0.011136 -0.999938 0.000110
vn 0.018685 -0.999811 -0.005374
vn 0.039749 -0.999124 -0.013108
vn 0.067280 -0.997551 -0.019121
vn 0.084582 -0.996164 -0.022437
vn 0.089351 -0.995725 -0.023394
vn -0.121979 -0.992183 -0.026337
vn -0.110738 -0.993442 -0.028458
vn -0.080534 -0.996282 -0.030604
vn -0.041724 -0.998740 -0.027877
vn -0.007718 -0.999731 -0.021863
vn 0.013198 -0.999727 -0.019277
vn 0.027924 -0.999295 -0.025106
vn 0.048569 -0.998190 -0.035454
vn 0.071341 -0.996553 -0.042349
vn 0.084075 -0.995547 -0.042630
vn 0.086693 -0.995383 -0.041201
vn -0.112260 -0.992611 -0.046049
vn -0.103948 -0.993286 -0.050775
vn -0.079318 -0.995235 -0.056706
vn -0.045458 -0.997341 -0.056964
vn -0.012561 -0.998438 -0.054433
vn 0.014197 -0.998483 -0.053198
vn 0.035824 -0.997772 -0.056286
vn 0.055965 -0.996552 -0.061261
vn 0.071974 -0.995451 -0.062421
vn 0.078890 -0.995216 -0.057626
vn 0.079700 -0.995362 -0.053883
vn -0.092721 -0.993801 -0.061336
vn -0.089779 -0.993440 -0.070834
vn -0.073934 -0.993679 -0.084468
vn -0.045112 -0.994926 -0.089928
vn -0.013842 -0.995709 -0.091495
vn 0.014363 -0.995692 -0.091603
vn 0.037564 -0.995193 -0.090446
vn 0.055337 -0.994702 -0.086638
vn 0.066000 -0.994693 -0.078932
vn 0.068128 -0.995421 -0.067042
vn 0.067022 -0.995944 -0.060026
vn -0.062744 -0.996295 -0.058821
vn -0.065270 -0.995129 -0.073879
vn -0.060144 -0.993317 -0.098513
vn -0.039481 -0.992877 -0.112415
vn -0.012891 -0.993005 -0.117365
vn 0.012063 -0.993190 -0.115882
vn 0.031914 -0.993517 -0.109116
vn 0.045700 -0.994167 -0.097692
vn 0.052416 -0.995234 -0.082227
vn 0.050208 -0.996772 -0.062645
vn 0.046599 -0.997573 -0.051741
vn -0.045356 -0.997638 -0.051584
vn -0.050205 -0.996344 -0.069117
vn -0.050497 -0.993766 -0.099393
vn -0.035142 -0.992356 -0.118300
vn -0.012228 -0.992097 -0.124873
vn 0.009924 -0.992497 -0.121865
vn 0.027250 -0.993315 -0.112173
vn 0.038879 -0.994448 -0.097780
vn 0.043714 -0.995923 -0.078914
vn 0.039294 -0.997690 -0.055421
vn 0.034398 -0.998500 -0.042594
s 1
g pPlane1
usemtl initialShadingGroup
f 1/1/1 12/2/2 13/3/3 2/4/4
f 2/4/4 13/3/3 14/7/5 3/8/6
f 3/8/6 14/7/5 15/12/7 4/13/8
f 4/13/8 15/12/7 16/18/9 5/19/10
f 5/19/10 16/18/9 17/25/11 6/26/12
f 6/26/12 17/25/11 18/33/13 7/34/14
f 7/34/14 18/33/13 19/42/15 8/43/16
f 8/43/16 19/42/15 20/52/17 9/53/18
f 9/53/18 20/52/17 21/63/19 10/64/20
f 10/64/20 21/63/19 22/75/21 11/76/22
f 12/2/2 23/5/23 24/6/24 13/3/3
f 13/3/3 24/6/24 25/11/25 14/7/5
f 14/7/5 25/11/25 26/17/26 15/12/7
f 15/12/7 26/17/26 27/24/27 16/18/9
f 16/18/9 27/24/27 28/32/28 17/25/11
f 17/25/11 28/32/28 29/41/29 18/33/13
f 18/33/13 29/41/29 30/51/30 19/42/15
f 19/42/15 30/51/30 31/62/31 20/52/17
f 20/52/17 31/62/31 32/74/32 21/63/19
f 21/63/19 32/74/32 33/85/33 22/75/21
f 23/5/23 34/9/34 35/10/35 24/6/24
f 24/6/24 35/10/35 36/16/36 25/11/25
f 25/11/25 36/16/36 37/23/37 26/17/26
f 26/17/26 37/23/37 38/31/38 27/24/27
f 27/24/27 38/31/38 39/40/39 28/32/28
f 28/32/28 39/40/39 40/50/40 29/41/29
f 29/41/29 40/50/40 41/61/41 30/51/30
f 30/51/30 41/61/41 42/73/42 31/62/31
f 31/62/31 42/73/42 43/84/43 32/74/32
f 32/74/32 43/84/43 44/93/44 33/85/33
f 34/9/34 45/14/45 46/15/46 35/10/35
f 35/10/35 46/15/46 47/22/47 36/16/36
f 36/16/36 47/22/47 48/30/48 37/23/37
f 37/23/37 48/30/48 49/39/49 38/31/38
f 38/31/38 49/39/49 50/49/50 39/40/39
f 39/40/39 50/49/50 51/60/51 40/50/40
f 40/50/40 51/60/51 52/72/52 41/61/41
f 41/61/41 52/72/52 53/83/53 42/73/42
f 42/73/42 53/83/53 54/92/54 43/84/43
f 43/84/43 54/92/54 55/100/55 44/93/44
f 45/14/45 56/20/56 57/21/57 46/15/46
f 46/15/46 57/21/57 58/29/58 47/22/47
f 47/22/47 58/29/58 59/38/59 48/30/48
f 48/30/48 59/38/59 60/48/60 49/39/49
f 49/39/49 60/48/60 61/59/61 50/49/50
f 50/49/50 61/59/61 62/71/62 51/60/51
f 51/60/51 62/71/62 63/82/63 52/72/52
f 52/72/52 63/82/63 64/91/64 53/83/53
f 53/83/53 64/91/64 65/99/65 54/92/54
f 54/92/54 65/99/65 66/106/66 55/100/55
f 56/20/56 67/27/67 68/28/68 57/21/57
f 57/21/57 68/28/68 69/37/69 58/29/58
f 58/29/58 69/37/69 70/47/70 59/38/59
f 59/38/59 70/47/70 71/58/71 60/48/60
f 60/48/60 71/58/71 72/70/72 61/59/61
f 61/59/61 72/70/72 73/81/73 62/71/62
f 62/71/62 73/81/73 74/90/74 63/82/63
f 63/82/63 74/90/74 75/98/75 64/91/64
f 64/91/64 75/98/75 76/105/76 65/99/65
f 65/99/65 76/105/76 77/111/77 66/106/66
f 67/27/67 78/35/78 79/36/79 68/28/68
f 68/28/68 79/36/79 80/46/80 69/37/69
f 69/37/69 80/46/80 81/57/81 70/47/70
f 70/47/70 81/57/81 82/69/82 71/58/71
f 71/58/71 82/69/82 83/80/83 72/70/72
f 72/70/72 83/80/83 84/89/84 73/81/73
f 73/81/73 84/89/84 85/97/85 74/90/74
f 74/90/74 85/97/85 86/104/86 75/98/75
f 75/98/75 86/104/86 87/110/87 76/105/76
f 76/105/76 87/110/87 88/115/88 77/111/77
f 78/35/78 89/44/89 90/45/90 79/36/79
f 79/36/79 90/45/90 91/56/91 80/46/80
f 80/46/80 91/56/91 92/68/92 81/57/81
f 81/57/81 92/68/92 93/79/93 82/69/82
f 82/69/82 93/79/93 94/88/94 83/80/83
f 83/80/83 94/88/94 95/96/95 84/89/84
f 84/89/84 95/96/95 96/103/96 85/97/85
f 85/97/85 96/103/96 97/109/97 86/104/86
f 86/104/86 97/109/97 98/114/98 87/110/87
f 87/110/87 98/114/98 99/118/99 88/115/88
f 89/44/89 100/54/100 101/55/101 90/45/90
f 90/45/90 101/55/101 102/67/102 91/56/91
f 91/56/91 102/67/102 103/78/103 92/68/92
f 92/68/92 103/78/103 104/87/104 93/79/93
f 93/79/93 104/87/104 105/95/105 94/88/94
f 94/88/94 105/95/105 106/102/106 95/96/95
f 95/96/95 106/102/106 107/108/107 96/103/96
f 96/103/96 107/108/107 108/113/108 97/109/97
f 97/109/97 108/113/108 109/117/109 98/114/98
f 98/114/98 109/117/109 110/120/110 99/118/99
f 100/54/100 111/65/111 112/66/112 101/55/101
f 101/55/101 112/66/112 113/77/113 102/67/102
f 102/67/102 113/77/113 114/86/114 103/78/103
f 103/78/103 114/86/114 115/94/115 104/87/104
f 104/87/104 115/94/115 116/101/116 105/95/105
f 105/95/105 116/101/116 117/107/117 106/102/106
f 106/102/106 117/107/117 118/112/118 107/108/107
f 107/108/107 118/112/118 119/116/119 108/113/108
f 108/113/108 119/116/119 120/119/120 109/117/109
f 109/117/109 120/119/120 121/121/121 110/120/110
