# This file uses centimeters as units for non-parametric coordinates.

mtllib crystal3.mtl
g default
v 1.373205 5.231434 0.203945
v 0.244744 5.255541 0.568487
v 0.237934 5.132238 1.748166
v 1.362185 5.031925 2.112708
v 2.063821 5.093231 1.158327
v 1.113665 6.186095 1.267070
v 2.039577 0.010968 0.626975
v 1.155186 0.187947 -0.595188
v 1.141075 -0.067540 1.849139
v -0.298621 0.060919 1.382314
v -0.289900 0.218819 -0.128363
vt 0.790269 0.637176
vt 0.642199 0.637176
vt 0.621426 0.000066
vt 0.811042 0.000066
vt 0.716234 0.767563
vt 0.656289 0.696710
vt 0.766466 0.848355
vt 0.656289 1.000000
vt 0.478020 0.942077
vt 0.478020 0.754633
vt 0.486546 0.718898
vt 0.327659 0.718898
vt 0.291592 0.000066
vt 0.495060 0.000066
vt 0.442630 0.866011
vt 0.584743 0.718898
vt 0.620810 0.000066
vt 0.036067 0.147113
vt 0.194954 0.147113
vt 0.203468 0.865945
vt 0.000000 0.865945
vt 0.151038 0.000000
vt 0.293151 0.147113
vt 0.329218 0.865945
vt 0.812634 0.296672
vt 0.812634 0.148351
vt 0.974074 0.148351
vt 0.812634 0.000031
vn -0.054848 -0.993052 -0.104113
vn -0.054848 -0.993052 -0.104113
vn -0.054848 -0.993052 -0.104113
vn -0.054848 -0.993052 -0.104113
vn -0.054848 -0.993052 -0.104113
vn -0.205034 0.702824 -0.681175
vn -0.205034 0.702824 -0.681175
vn -0.205034 0.702824 -0.681175
vn -0.752948 0.654950 0.064110
vn -0.752948 0.654950 0.064110
vn -0.752948 0.654950 0.064110
vn -0.213639 0.547026 0.809395
vn -0.213639 0.547026 0.809395
vn -0.213639 0.547026 0.809395
vn 0.667587 0.528200 0.524722
vn 0.667587 0.528200 0.524722
vn 0.667587 0.528200 0.524722
vn 0.672905 0.624489 -0.396501
vn 0.672905 0.624489 -0.396501
vn 0.672905 0.624489 -0.396501
vn 0.812718 0.056750 -0.579887
vn 0.812718 0.056750 -0.579887
vn 0.812718 0.056750 -0.579887
vn 0.812718 0.056750 -0.579887
vn 0.805974 -0.065355 0.588333
vn 0.805974 -0.065355 0.588332
vn 0.805974 -0.065355 0.588332
vn 0.805974 -0.065355 0.588332
vn -0.311120 -0.035596 0.949704
vn -0.311120 -0.035596 0.949704
vn -0.311120 -0.035596 0.949704
vn -0.311120 -0.035596 0.949704
vn -0.994475 0.104841 0.005217
vn -0.994475 0.104841 0.005217
vn -0.994475 0.104841 0.005217
vn -0.994475 0.104841 0.005217
vn -0.300210 0.161924 -0.940029
vn -0.300210 0.161924 -0.940029
vn -0.300210 0.161924 -0.940029
vn -0.300210 0.161924 -0.940029
s off
g pPyramid2 Crystal
usemtl initialShadingGroup
f 8/6/1 7/7/2 9/8/3 10/9/4 11/10/5
f 1/19/6 2/18/7 6/22/8
f 2/2/9 3/1/10 6/5/11
f 3/12/12 4/11/13 6/15/14
f 4/25/15 5/26/16 6/27/17
f 5/26/18 1/28/19 6/27/20
f 1/19/21 5/23/22 7/24/23 8/20/24
f 5/16/25 4/11/26 9/14/27 7/17/28
f 4/11/29 3/12/30 10/13/31 9/14/32
f 3/1/33 2/2/34 11/3/35 10/4/36
f 2/18/37 1/19/38 8/20/39 11/21/40
g default
v 1.373205 5.231434 0.203945
v 0.244744 5.255541 0.568487
v 0.237934 5.132238 1.748166
v 1.362185 5.031925 2.112708
v 2.063821 5.093231 1.158327
v 1.113665 6.186095 1.267070
v 2.039577 0.010968 0.626975
v 1.155186 0.187947 -0.595188
v 1.141075 -0.067540 1.849139
v -0.298621 0.060919 1.382314
v -0.289900 0.218819 -0.128363
vt 0.790269 0.637176
vt 0.642199 0.637176
vt 0.621426 0.000066
vt 0.811042 0.000066
vt 0.716234 0.767563
vt 0.656289 0.696710
vt 0.766466 0.848355
vt 0.656289 1.000000
vt 0.478020 0.942077
vt 0.478020 0.754633
vt 0.486546 0.718898
vt 0.327659 0.718898
vt 0.291592 0.000066
vt 0.495060 0.000066
vt 0.442630 0.866011
vt 0.584743 0.718898
vt 0.620810 0.000066
vt 0.036067 0.147113
vt 0.194954 0.147113
vt 0.203468 0.865945
vt 0.000000 0.865945
vt 0.151038 0.000000
vt 0.293151 0.147113
vt 0.329218 0.865945
vt 0.812634 0.296672
vt 0.812634 0.148351
vt 0.974074 0.148351
vt 0.812634 0.000031
vn -0.054848 -0.993052 -0.104113
vn -0.054848 -0.993052 -0.104113
vn -0.054848 -0.993052 -0.104113
vn -0.054848 -0.993052 -0.104113
vn -0.054848 -0.993052 -0.104113
vn -0.205034 0.702824 -0.681175
vn -0.205034 0.702824 -0.681175
vn -0.205034 0.702824 -0.681175
vn -0.752948 0.654950 0.064110
vn -0.752948 0.654950 0.064110
vn -0.752948 0.654950 0.064110
vn -0.213639 0.547026 0.809395
vn -0.213639 0.547026 0.809395
vn -0.213639 0.547026 0.809395
vn 0.667587 0.528200 0.524722
vn 0.667587 0.528200 0.524722
vn 0.667587 0.528200 0.524722
vn 0.672905 0.624489 -0.396501
vn 0.672905 0.624489 -0.396501
vn 0.672905 0.624489 -0.396501
vn 0.812718 0.056750 -0.579887
vn 0.812718 0.056750 -0.579887
vn 0.812718 0.056750 -0.579887
vn 0.812718 0.056750 -0.579887
vn 0.805974 -0.065355 0.588333
vn 0.805974 -0.065355 0.588332
vn 0.805974 -0.065355 0.588332
vn 0.805974 -0.065355 0.588332
vn -0.311120 -0.035596 0.949704
vn -0.311120 -0.035596 0.949704
vn -0.311120 -0.035596 0.949704
vn -0.311120 -0.035596 0.949704
vn -0.994475 0.104841 0.005217
vn -0.994475 0.104841 0.005217
vn -0.994475 0.104841 0.005217
vn -0.994475 0.104841 0.005217
vn -0.300210 0.161924 -0.940029
vn -0.300210 0.161924 -0.940029
vn -0.300210 0.161924 -0.940029
vn -0.300210 0.161924 -0.940029
s off
g pPyramid2 Crystal
f 19/34/41 18/35/42 20/36/43 21/37/44 22/38/45
f 12/47/46 13/46/47 17/50/48
f 13/30/49 14/29/50 17/33/51
f 14/40/52 15/39/53 17/43/54
f 15/53/55 16/54/56 17/55/57
f 16/54/58 12/56/59 17/55/60
f 12/47/61 16/51/62 18/52/63 19/48/64
f 16/44/65 15/39/66 20/42/67 18/45/68
f 15/39/69 14/40/70 21/41/71 20/42/72
f 14/29/73 13/30/74 22/31/75 21/32/76
f 13/46/77 12/47/78 19/48/79 22/49/80
