# This file uses centimeters as units for non-parametric coordinates.

mtllib diamond.mtl
g default
v 0.904509 0.309017 -0.293893
v 0.769421 0.309017 -0.559017
v 0.559017 0.309017 -0.769421
v 0.293893 0.309017 -0.904509
v 0.000000 0.309017 -0.951057
v -0.293893 0.309017 -0.904509
v -0.559017 0.309017 -0.769421
v -0.769421 0.309017 -0.559017
v -0.904509 0.309017 -0.293893
v -0.951057 0.309017 0.000000
v -0.904509 0.309017 0.293893
v -0.769421 0.309017 0.559017
v -0.559017 0.309017 0.769421
v -0.293893 0.309017 0.904509
v -0.000000 0.309017 0.951057
v 0.293893 0.309017 0.904509
v 0.559017 0.309017 0.769421
v 0.769421 0.309017 0.559017
v 0.904509 0.309017 0.293893
v 0.951057 0.309017 0.000000
v 0.000000 -1.000000 0.000000
v 0.000000 1.000000 0.000000
vt 0.784531 0.908209
vt 0.735267 0.957472
vt 0.604380 0.777322
vt 0.673191 0.989101
vt 0.816160 0.846133
vt 0.604380 1.000000
vt 0.827058 0.777322
vt 0.535569 0.989101
vt 0.816160 0.708510
vt 0.473493 0.957472
vt 0.784530 0.646435
vt 0.424229 0.908209
vt 0.735267 0.597171
vt 0.392600 0.846133
vt 0.673191 0.565542
vt 0.381702 0.777322
vt 0.604380 0.554643
vt 0.392600 0.708510
vt 0.535569 0.565542
vt 0.424229 0.646435
vt 0.473493 0.597171
vt 0.381702 0.114316
vt 0.381702 0.191625
vt 0.000000 0.277323
vt 0.381702 0.277323
vt 0.381702 0.052964
vt 0.381702 0.363020
vt 0.381702 0.013573
vt 0.381702 0.440329
vt 0.381702 0.000000
vt 0.381702 0.501681
vt 0.381702 0.013573
vt 0.381702 0.541072
vt 0.381702 0.052964
vt 0.381702 0.554645
vt 0.381702 0.114317
vt 0.381702 0.541072
vt 0.381702 0.191625
vt 0.381702 0.501681
vt 0.381702 0.277323
vt 0.381702 0.440329
vt 0.381702 0.363020
vn 0.723906 -0.583019 -0.368849
vn 0.723906 -0.583019 -0.368849
vn 0.723906 -0.583019 -0.368849
vn 0.574495 -0.583019 -0.574495
vn 0.574495 -0.583019 -0.574495
vn 0.574495 -0.583019 -0.574495
vn 0.368848 -0.583019 -0.723906
vn 0.368849 -0.583019 -0.723906
vn 0.368848 -0.583019 -0.723906
vn 0.127096 -0.583019 -0.802456
vn 0.127096 -0.583019 -0.802456
vn 0.127096 -0.583019 -0.802456
vn -0.127097 -0.583019 -0.802456
vn -0.127097 -0.583019 -0.802456
vn -0.127097 -0.583019 -0.802456
vn -0.368849 -0.583019 -0.723906
vn -0.368849 -0.583019 -0.723906
vn -0.368849 -0.583019 -0.723906
vn -0.574495 -0.583019 -0.574495
vn -0.574495 -0.583019 -0.574495
vn -0.574495 -0.583019 -0.574495
vn -0.723906 -0.583019 -0.368848
vn -0.723906 -0.583019 -0.368848
vn -0.723906 -0.583019 -0.368849
vn -0.802456 -0.583019 -0.127096
vn -0.802456 -0.583019 -0.127096
vn -0.802456 -0.583019 -0.127096
vn -0.802456 -0.583019 0.127096
vn -0.802456 -0.583019 0.127096
vn -0.802456 -0.583019 0.127096
vn -0.723906 -0.583019 0.368849
vn -0.723906 -0.583019 0.368849
vn -0.723906 -0.583019 0.368849
vn -0.574495 -0.583019 0.574495
vn -0.574495 -0.583019 0.574495
vn -0.574495 -0.583019 0.574495
vn -0.368848 -0.583019 0.723906
vn -0.368848 -0.583019 0.723906
vn -0.368848 -0.583019 0.723906
vn -0.127096 -0.583019 0.802456
vn -0.127096 -0.583019 0.802456
vn -0.127096 -0.583019 0.802456
vn 0.127097 -0.583019 0.802456
vn 0.127097 -0.583019 0.802456
vn 0.127097 -0.583019 0.802456
vn 0.368849 -0.583019 0.723906
vn 0.368849 -0.583019 0.723906
vn 0.368849 -0.583019 0.723906
vn 0.574495 -0.583019 0.574495
vn 0.574495 -0.583019 0.574495
vn 0.574495 -0.583019 0.574495
vn 0.723906 -0.583018 0.368849
vn 0.723906 -0.583019 0.368849
vn 0.723906 -0.583019 0.368849
vn 0.802456 -0.583019 0.127097
vn 0.802456 -0.583019 0.127097
vn 0.802456 -0.583019 0.127097
vn 0.802456 -0.583019 -0.127095
vn 0.802456 -0.583019 -0.127095
vn 0.802456 -0.583019 -0.127095
vn 0.527966 0.805534 -0.269012
vn 0.527966 0.805534 -0.269012
vn 0.527966 0.805534 -0.269012
vn 0.418996 0.805534 -0.418996
vn 0.418996 0.805534 -0.418996
vn 0.418996 0.805534 -0.418996
vn 0.269012 0.805534 -0.527966
vn 0.269012 0.805534 -0.527966
vn 0.269012 0.805534 -0.527966
vn 0.092695 0.805534 -0.585254
vn 0.092695 0.805534 -0.585254
vn 0.092695 0.805534 -0.585254
vn -0.092695 0.805534 -0.585254
vn -0.092695 0.805534 -0.585254
vn -0.092695 0.805534 -0.585254
vn -0.269012 0.805534 -0.527966
vn -0.269012 0.805534 -0.527966
vn -0.269012 0.805534 -0.527966
vn -0.418996 0.805534 -0.418996
vn -0.418996 0.805534 -0.418996
vn -0.418996 0.805534 -0.418996
vn -0.527966 0.805534 -0.269012
vn -0.527966 0.805534 -0.269012
vn -0.527966 0.805534 -0.269012
vn -0.585254 0.805534 -0.092695
vn -0.585254 0.805534 -0.092695
vn -0.585254 0.805534 -0.092695
vn -0.585254 0.805534 0.092695
vn -0.585254 0.805534 0.092695
vn -0.585254 0.805534 0.092695
vn -0.527966 0.805534 0.269012
vn -0.527966 0.805534 0.269012
vn -0.527966 0.805534 0.269012
vn -0.418996 0.805534 0.418996
vn -0.418996 0.805534 0.418996
vn -0.418996 0.805534 0.418996
vn -0.269012 0.805534 0.527966
vn -0.269012 0.805534 0.527966
vn -0.269012 0.805534 0.527966
vn -0.092695 0.805534 0.585255
vn -0.092695 0.805534 0.585255
vn -0.092695 0.805534 0.585255
vn 0.092695 0.805534 0.585254
vn 0.092695 0.805534 0.585255
vn 0.092695 0.805534 0.585255
vn 0.269012 0.805534 0.527966
vn 0.269012 0.805534 0.527966
vn 0.269012 0.805534 0.527966
vn 0.418996 0.805534 0.418996
vn 0.418996 0.805534 0.418996
vn 0.418996 0.805534 0.418996
vn 0.527966 0.805534 0.269012
vn 0.527966 0.805534 0.269012
vn 0.527966 0.805534 0.269012
vn 0.585255 0.805534 0.092695
vn 0.585254 0.805534 0.092695
vn 0.585254 0.805534 0.092695
vn 0.585255 0.805534 -0.092694
vn 0.585255 0.805534 -0.092694
vn 0.585255 0.805534 -0.092694
s off
g pSphere1
usemtl initialShadingGroup
f 2/22/1 1/23/2 21/24/3
f 3/26/4 2/22/5 21/24/6
f 4/28/7 3/26/8 21/24/9
f 5/30/10 4/28/11 21/24/12
f 6/32/13 5/30/14 21/24/15
f 7/34/16 6/32/17 21/24/18
f 8/36/19 7/34/20 21/24/21
f 9/38/22 8/36/23 21/24/24
f 10/40/25 9/38/26 21/24/27
f 11/42/28 10/40/29 21/24/30
f 12/41/31 11/42/32 21/24/33
f 13/39/34 12/41/35 21/24/36
f 14/37/37 13/39/38 21/24/39
f 15/35/40 14/37/41 21/24/42
f 16/33/43 15/35/44 21/24/45
f 17/31/46 16/33/47 21/24/48
f 18/29/49 17/31/50 21/24/51
f 19/27/52 18/29/53 21/24/54
f 20/25/55 19/27/56 21/24/57
f 1/23/58 20/25/59 21/24/60
f 1/5/61 2/1/62 22/3/63
f 2/1/64 3/2/65 22/3/66
f 3/2/67 4/4/68 22/3/69
f 4/4/70 5/6/71 22/3/72
f 5/6/73 6/8/74 22/3/75
f 6/8/76 7/10/77 22/3/78
f 7/10/79 8/12/80 22/3/81
f 8/12/82 9/14/83 22/3/84
f 9/14/85 10/16/86 22/3/87
f 10/16/88 11/18/89 22/3/90
f 11/18/91 12/20/92 22/3/93
f 12/20/94 13/21/95 22/3/96
f 13/21/97 14/19/98 22/3/99
f 14/19/100 15/17/101 22/3/102
f 15/17/103 16/15/104 22/3/105
f 16/15/106 17/13/107 22/3/108
f 17/13/109 18/11/110 22/3/111
f 18/11/112 19/9/113 22/3/114
f 19/9/115 20/7/116 22/3/117
f 20/7/118 1/5/119 22/3/120
