# author: headus 3D tools
#  using: ply2obj v1.12
#   from: uvlayout v2025.01
# 113 vertices
v 5.799999 -3.750000 0.000000
v -3.479999 -2.250000 0.000000
v -2.319998 -1.500000 0.000000
v -1.160000 -0.750000 0.000000
v 0.000000 0.000000 0.000000
v 1.160000 0.750000 0.000000
v 2.320002 1.500000 0.000000
v 5.799999 3.750000 0.000000
v 5.799999 -3.750000 3.645798
v 5.799999 3.750000 3.645798
v 3.480000 2.250000 3.645798
v 2.320002 1.500000 3.645798
v 1.160000 0.750000 3.645798
v -5.799999 -3.750000 3.645798
v 5.799999 -3.750000 4.119928
v 5.799999 -3.750000 -0.499153
v 4.639999 2.999998 3.645798
v -4.639998 -3.000000 3.645798
v -3.479999 -2.250000 3.645798
v -2.319998 -1.500000 3.645798
v -1.160000 -0.750000 3.645798
v 0.000000 0.000000 3.645798
v -4.639998 -3.000000 0.000000
v 4.639999 2.999998 0.000000
v 3.480000 2.250000 0.000000
v -5.799999 -3.750000 0.000000
v -5.799999 -3.750000 0.000000
v 4.714992 3.750000 0.000000
v 4.639999 3.675008 0.000000
v 4.639999 3.675008 3.645798
v 4.714992 3.750000 3.645798
v 3.554991 2.999998 0.000000
v 3.480000 2.925008 0.000000
v 3.480000 2.925008 3.645798
v 3.554991 2.999998 3.645798
v 2.394994 2.250000 0.000000
v 2.320002 2.175008 0.000000
v 2.320002 2.175008 3.645798
v 2.394994 2.250000 3.645798
v 1.234992 1.500000 0.000000
v 1.160000 1.425007 0.000000
v 1.160000 1.425007 3.645798
v 1.234992 1.500000 3.645798
v 0.074992 0.750000 0.000000
v 0.000000 0.675006 0.000000
v -0.000001 0.675006 3.645801
v 0.074992 0.749999 3.645801
v -1.085008 0.000000 0.000000
v -1.160000 -0.074995 0.000000
v -1.160000 -0.074995 3.645801
v -1.085006 0.000000 3.645801
v -2.245006 -0.750000 0.000000
v -2.319997 -0.824994 0.000000
v -2.319997 -0.824994 3.645801
v -2.245006 -0.750000 3.645801
v -3.405008 -1.500000 0.000000
v -3.479999 -1.574992 0.000000
v -3.479999 -1.574992 3.645798
v -3.405008 -1.500001 3.645798
v -4.565006 -2.250000 0.000000
v -4.639998 -2.324993 0.000000
v -4.639998 -2.324993 3.645798
v -4.565007 -2.250000 3.645798
v -5.725006 -3.000000 0.000000
v -5.799999 -3.074992 0.000000
v -5.800000 -3.074993 3.645798
v -5.725006 -3.000000 3.645798
v -4.485063 -3.011132 -0.499153
v -4.639998 -3.000000 -0.343820
v -3.331320 -2.274033 -0.499153
v -3.479999 -2.250000 -0.348546
v -2.154730 -1.545797 -0.499153
v -2.319997 -1.500000 -0.370965
v -1.090399 -0.857649 -0.499153
v -1.160000 -0.750000 -0.370965
v 0.069600 -0.107651 -0.499153
v 0.000000 0.000000 -0.370965
v 1.253207 0.659606 -0.499153
v 1.160000 0.750000 -0.369314
v 2.390827 1.393149 -0.499153
v 2.319999 1.500000 -0.370961
v 5.799999 3.750000 -0.370965
v 5.799999 3.597352 -0.499153
v 4.663608 2.862614 -0.499153
v 4.639999 2.999998 -0.370965
v 3.526716 2.129177 -0.499153
v 3.479999 2.250000 -0.369616
v -5.799999 -3.750000 -0.370965
v -5.563903 -3.750000 -0.499153
v -2.319997 -1.500000 3.991739
v -2.154730 -1.545796 4.119928
v -1.159997 -0.750000 3.991739
v -1.090399 -0.857649 4.119928
v 0.112489 -0.072730 4.119928
v 0.000000 0.000000 3.985974
v 1.159999 0.750000 3.990089
v 1.253207 0.659606 4.119928
v 4.639998 2.999998 3.991739
v 4.709598 2.892351 4.119928
v 5.799999 3.750001 3.991739
v 5.799999 3.589939 4.119928
v 3.479999 2.250000 3.991739
v 3.549600 2.142350 4.119928
v 2.390827 1.393149 4.119928
v 2.319999 1.500000 3.991737
v -5.563903 -3.750000 4.119928
v -5.799999 -3.750000 3.991739
v -4.639998 -3.000000 3.975134
v -4.459177 -3.012991 4.119928
v -3.479999 -2.250000 3.991739
v -3.410397 -2.357649 4.119928
v 5.799999 3.596550 0.000000
v 5.799999 3.590698 3.645798
# 324 normals
vn 0.000000 0.000000 1.000000
vn 0.000000 0.000000 1.000000
vn 0.000000 0.000000 1.000000
vn 0.000000 0.000000 1.000000
vn 0.000000 0.000000 -1.000000
vn 0.000000 0.000000 -1.000000
vn 0.000000 0.000000 -1.000000
vn 0.000000 0.000000 -1.000000
vn 1.000000 0.000000 0.000000
vn 1.000000 0.000000 0.000000
vn 1.000000 0.000000 0.000000
vn 1.000000 0.000000 0.000000
vn 0.000000 1.000000 0.000000
vn 0.000000 1.000000 0.000000
vn 0.000000 1.000000 0.000000
vn 0.000000 1.000000 0.000000
vn -1.000000 0.000000 0.000000
vn -1.000000 0.000000 0.000000
vn -1.000000 0.000000 0.000000
vn -1.000000 0.000000 0.000000
vn 0.000000 1.000000 0.000000
vn 0.000000 1.000000 0.000000
vn 0.000000 1.000000 0.000000
vn 0.000000 1.000000 0.000000
vn -1.000000 0.000000 0.000000
vn -1.000000 0.000000 0.000000
vn -1.000000 0.000000 0.000000
vn -1.000000 0.000000 0.000000
vn 0.000000 1.000000 0.000000
vn 0.000000 1.000000 0.000000
vn 0.000000 1.000000 0.000000
vn 0.000000 1.000000 0.000000
vn -1.000000 0.000000 0.000000
vn -1.000000 0.000000 0.000000
vn -1.000000 0.000000 0.000000
vn -1.000000 0.000000 0.000000
vn 0.000000 1.000000 0.000000
vn 0.000000 1.000000 0.000000
vn 0.000000 1.000000 0.000000
vn 0.000000 1.000000 0.000000
vn -1.000000 0.000000 0.000000
vn -1.000000 0.000000 0.000000
vn -1.000000 0.000000 0.000000
vn -1.000000 0.000000 0.000000
vn 0.000000 1.000000 0.000000
vn 0.000000 1.000000 0.000000
vn 0.000000 1.000000 0.000000
vn 0.000000 1.000000 0.000000
vn -1.000000 0.000000 0.000000
vn -1.000000 0.000000 0.000000
vn -1.000000 0.000000 0.000000
vn -1.000000 0.000000 0.000000
vn 0.000000 1.000000 0.000000
vn 0.000000 1.000000 0.000000
vn 0.000000 1.000000 0.000000
vn 0.000000 1.000000 0.000000
vn -1.000000 0.000000 0.000000
vn -1.000000 0.000000 0.000000
vn -1.000000 0.000000 0.000000
vn -1.000000 0.000000 0.000000
vn 0.000000 1.000000 0.000000
vn 0.000000 1.000000 0.000000
vn 0.000000 1.000000 0.000000
vn 0.000000 1.000000 0.000000
vn -1.000000 0.000000 0.000000
vn -1.000000 0.000000 0.000000
vn -1.000000 0.000000 0.000000
vn -1.000000 0.000000 0.000000
vn 0.000000 1.000000 0.000000
vn 0.000000 1.000000 0.000000
vn 0.000000 1.000000 0.000000
vn 0.000000 1.000000 0.000000
vn -1.000000 0.000000 0.000000
vn -1.000000 0.000000 0.000000
vn -1.000000 0.000000 0.000000
vn -1.000000 0.000000 0.000000
vn 0.000000 1.000000 0.000000
vn 0.000000 1.000000 0.000000
vn 0.000000 1.000000 0.000000
vn 0.000000 1.000000 0.000000
vn -1.000000 0.000000 0.000000
vn -1.000000 0.000000 0.000000
vn -1.000000 0.000000 0.000000
vn -1.000000 0.000000 0.000000
vn 0.000000 1.000000 0.000000
vn 0.000000 1.000000 0.000000
vn 0.000000 1.000000 0.000000
vn 0.000000 1.000000 0.000000
vn -1.000000 0.000000 0.000000
vn -1.000000 0.000000 0.000000
vn -1.000000 0.000000 0.000000
vn -1.000000 0.000000 0.000000
vn 1.000000 0.000000 0.000000
vn 1.000000 0.000000 0.000000
vn 1.000000 0.000000 0.000000
vn 1.000000 0.000000 0.000000
vn 0.000000 0.000000 -1.000000
vn 0.000000 0.000000 -1.000000
vn 0.000000 0.000000 -1.000000
vn 0.000000 0.000000 -1.000000
vn 0.000000 0.000000 -1.000000
vn 0.000000 0.000000 -1.000000
vn 0.000000 0.000000 -1.000000
vn 0.000000 0.000000 -1.000000
vn 0.000000 0.000000 1.000000
vn 0.000000 0.000000 1.000000
vn 0.000000 0.000000 1.000000
vn 0.000000 0.000000 1.000000
vn 0.000000 0.000000 -1.000000
vn 0.000000 0.000000 -1.000000
vn 0.000000 0.000000 -1.000000
vn 0.000000 0.000000 -1.000000
vn 0.000000 0.000000 1.000000
vn 0.000000 0.000000 1.000000
vn 0.000000 0.000000 1.000000
vn 0.000000 0.000000 1.000000
vn 0.000000 0.000000 -1.000000
vn 0.000000 0.000000 -1.000000
vn 0.000000 0.000000 -1.000000
vn 0.000000 0.000000 -1.000000
vn 0.000000 0.000000 1.000000
vn 0.000000 0.000000 1.000000
vn 0.000000 0.000000 1.000000
vn 0.000000 0.000000 1.000000
vn 0.000000 0.000000 -1.000000
vn 0.000000 0.000000 -1.000000
vn 0.000000 0.000000 -1.000000
vn 0.000000 0.000000 -1.000000
vn 0.000000 0.000000 1.000000
vn 0.000000 0.000000 1.000000
vn 0.000000 0.000000 1.000000
vn 0.000000 0.000000 1.000000
vn 0.000000 0.000000 -1.000000
vn 0.000000 0.000000 -1.000000
vn 0.000000 0.000000 -1.000000
vn 0.000000 0.000000 -1.000000
vn 0.000000 0.000000 1.000000
vn 0.000000 0.000000 1.000000
vn 0.000000 0.000000 1.000000
vn 0.000000 0.000000 1.000000
vn 0.000000 0.000000 -1.000000
vn 0.000000 0.000000 -1.000000
vn 0.000000 0.000000 -1.000000
vn 0.000000 0.000000 -1.000000
vn 0.000000 0.000000 1.000000
vn 0.000000 0.000000 1.000000
vn 0.000000 0.000000 1.000000
vn 0.000000 0.000000 1.000000
vn 0.000000 0.000000 -1.000000
vn 0.000000 0.000000 -1.000000
vn 0.000000 0.000000 -1.000000
vn 0.000000 0.000000 -1.000000
vn 0.000000 0.000000 1.000000
vn 0.000000 0.000000 1.000000
vn 0.000000 0.000000 1.000000
vn 0.000000 0.000000 1.000000
vn 0.000000 0.000000 -1.000000
vn 0.000000 0.000000 -1.000000
vn 0.000000 0.000000 -1.000000
vn 0.000000 0.000000 -1.000000
vn 0.000000 0.000000 1.000000
vn 0.000000 0.000000 1.000000
vn 0.000000 0.000000 1.000000
vn 0.000000 0.000000 1.000000
vn 0.000000 0.000000 1.000000
vn 0.000000 0.000000 1.000000
vn 0.000000 0.000000 1.000000
vn 0.000000 0.000000 1.000000
vn -0.707044 0.707013 0.000000
vn -0.707044 0.707013 0.000000
vn -0.707044 0.707013 0.000000
vn -0.707044 0.707013 0.000000
vn -0.707044 0.707013 0.000000
vn -0.707044 0.707013 0.000000
vn -0.707044 0.707013 0.000000
vn -0.707044 0.707013 0.000000
vn -0.707044 0.707044 0.000000
vn -0.707044 0.707044 0.000000
vn -0.707044 0.707044 0.000000
vn -0.707044 0.707044 0.000000
vn -0.707044 0.707044 0.000000
vn -0.707044 0.707044 0.000000
vn -0.707044 0.707044 0.000000
vn -0.707044 0.707044 0.000000
vn -0.707013 0.707044 0.000000
vn -0.707013 0.707044 0.000000
vn -0.707013 0.707044 0.000000
vn -0.707013 0.707044 0.000000
vn -0.707044 0.707044 0.000000
vn -0.707044 0.707044 0.000000
vn -0.707044 0.707044 0.000000
vn -0.707044 0.707044 0.000000
vn -0.707044 0.707044 0.000000
vn -0.707044 0.707044 0.000000
vn -0.707044 0.707044 0.000000
vn -0.707044 0.707044 0.000000
vn -0.707044 0.707013 0.000000
vn -0.707044 0.707013 0.000000
vn -0.707044 0.707013 0.000000
vn -0.707044 0.707013 0.000000
vn -0.707013 0.707044 0.000000
vn -0.707013 0.707044 0.000000
vn -0.707013 0.707044 0.000000
vn -0.707013 0.707044 0.000000
vn -0.707013 0.707044 0.000000
vn -0.707013 0.707044 0.000000
vn -0.707013 0.707044 0.000000
vn -0.707013 0.707044 0.000000
vn -0.447201 0.690411 -0.568516
vn -0.441342 0.679271 -0.586248
vn -0.442532 0.687847 -0.575169
vn -0.434536 0.675792 -0.595282
vn -0.429775 0.657572 -0.618568
vn -0.429775 0.657572 -0.618568
vn -0.405268 0.629738 -0.662638
vn -0.397943 0.617347 -0.678508
vn -0.383843 0.593725 -0.707044
vn -0.383843 0.593725 -0.707044
vn -0.385216 0.595739 -0.704694
vn -0.385125 0.595648 -0.704877
vn -0.386346 0.597632 -0.702435
vn -0.386346 0.597632 -0.702435
vn -0.386162 0.597265 -0.702924
vn -0.386162 0.597296 -0.702893
vn -0.385888 0.596869 -0.703290
vn -0.385888 0.596869 -0.703259
vn -0.383843 0.593725 -0.707044
vn -0.383843 0.593725 -0.707044
vn -0.385094 0.595617 -0.704908
vn -0.384759 0.595038 -0.705457
vn -0.383843 0.593725 0.707044
vn -0.383843 0.593725 0.707044
vn -0.388238 0.600470 0.699017
vn -0.388665 0.600989 0.698224
vn -0.395501 0.612922 0.683910
vn -0.396478 0.614417 0.681987
vn -0.393945 0.609321 0.688122
vn -0.393701 0.608985 0.688458
vn -0.390588 0.604254 0.694378
vn -0.390771 0.604560 0.694012
vn -0.385186 0.595739 0.704694
vn -0.385094 0.595648 0.704877
vn -0.535677 0.829152 0.159373
vn -0.377770 0.587225 0.715803
vn -0.377770 0.587225 0.715803
vn -0.529543 0.820027 0.216780
vn -0.383843 0.593725 0.707044
vn -0.383843 0.593725 0.707044
vn -0.383843 0.593725 0.707013
vn -0.383843 0.593725 0.707013
vn -0.410425 0.632424 0.656931
vn -0.410425 0.632424 0.656931
vn -0.409449 0.633858 0.656107
vn -0.409785 0.633217 0.656382
vn 0.000000 0.000000 1.000000
vn 0.000000 0.000000 1.000000
vn 0.000000 0.000000 1.000000
vn 0.000000 0.000000 1.000000
vn 0.000000 0.000000 -1.000000
vn 0.000000 0.000000 -1.000000
vn 0.000000 0.000000 -1.000000
vn 0.000000 0.000000 -1.000000
vn 0.000000 0.000000 -1.000000
vn 0.000000 0.000000 -1.000000
vn 0.000000 0.000000 -1.000000
vn 0.000000 0.000000 -1.000000
vn 0.000000 0.000000 -1.000000
vn 0.000000 0.000000 -1.000000
vn 0.000000 0.000000 -1.000000
vn 0.000000 0.000000 -1.000000
vn -0.542941 0.839742 0.000000
vn -0.542941 0.839742 0.000000
vn -0.542941 0.839742 0.000000
vn -0.542941 0.839742 0.000000
vn -0.542941 0.839742 0.000000
vn -0.542941 0.839742 0.000000
vn -0.542941 0.839742 0.000000
vn -0.542941 0.839742 0.000000
vn -0.542941 0.839742 0.000000
vn -0.542941 0.839742 0.000000
vn -0.542941 0.839742 0.000000
vn -0.542941 0.839742 0.000000
vn -0.542941 0.839742 0.000000
vn -0.542941 0.839742 0.000000
vn -0.542941 0.839742 0.000000
vn -0.542941 0.839742 0.000000
vn -0.542941 0.839742 0.000000
vn -0.542941 0.839742 0.000000
vn -0.542941 0.839742 0.000000
vn -0.542941 0.839742 0.000000
vn -0.542941 0.839742 0.000000
vn -0.542941 0.839742 0.000000
vn -0.542941 0.839742 0.000000
vn -0.542941 0.839742 0.000000
vn -0.542941 0.839742 0.000000
vn -0.542941 0.839742 0.000000
vn -0.542941 0.839742 0.000000
vn -0.542941 0.839742 0.000000
vn -0.542941 0.839742 0.000000
vn -0.542941 0.839742 0.000000
vn -0.542941 0.839742 0.000000
vn -0.542941 0.839742 0.000000
vn -0.542941 0.839742 0.000000
vn -0.542941 0.839742 0.000000
vn -0.542941 0.839742 0.000000
vn -0.542941 0.839742 0.000000
vn -0.542941 0.839742 0.000000
vn -0.542941 0.839742 0.000000
vn -0.542941 0.839742 0.000000
vn -0.542941 0.839742 0.000000
vn -0.542941 0.839742 0.000000
vn -0.542941 0.839742 0.000000
vn 0.000000 0.000000 1.000000
vn 0.000000 0.000000 1.000000
vn 0.000000 0.000000 1.000000
vn 0.000000 0.000000 1.000000
vn 0.000000 0.000000 1.000000
vn 0.000000 0.000000 1.000000
vn 0.000000 0.000000 1.000000
vn 0.000000 0.000000 1.000000
vn 1.000000 0.000000 0.000000
vn 1.000000 0.000000 0.000000
vn 1.000000 0.000000 0.000000
vn 1.000000 0.000000 0.000000
# 164 uv coords
vt 0.432723 0.866413
vt 0.606319 0.938228
vt 0.469526 0.777448
vt 0.643125 0.849264
vt 0.506484 0.688100
vt 0.680088 0.759915
vt 0.543554 0.598475
vt 0.717163 0.670287
vt 0.580699 0.508677
vt 0.754307 0.580488
vt 0.617870 0.418815
vt 0.791478 0.490627
vt 0.655024 0.328998
vt 0.828632 0.400807
vt 0.692117 0.239329
vt 0.865721 0.311133
vt 0.729100 0.149917
vt 0.902702 0.221718
vt 0.765933 0.060869
vt 0.939530 0.132666
vt 0.577480 0.049433
vt 0.588070 0.053475
vt 0.518699 0.089277
vt 0.528774 0.093765
vt 0.458701 0.128738
vt 0.468878 0.133168
vt 0.404441 0.165943
vt 0.409754 0.173702
vt 0.345310 0.206476
vt 0.350630 0.214237
vt 0.284975 0.247923
vt 0.291543 0.254827
vt 0.226969 0.287545
vt 0.232351 0.295260
vt 0.111085 0.366882
vt 0.114058 0.376241
vt 0.169055 0.327283
vt 0.173245 0.335813
vt 0.518964 0.157511
vt 0.519363 0.168606
vt 0.459668 0.197787
vt 0.464952 0.205566
vt 0.403122 0.247194
vt 0.400196 0.237811
vt 0.341030 0.278287
vt 0.345069 0.286922
vt 0.163277 0.399300
vt 0.168562 0.407077
vt 0.222537 0.358981
vt 0.227822 0.366761
vt 0.287028 0.326491
vt 0.281806 0.318668
vt 0.637046 0.076210
vt 0.636103 0.088169
vt 0.578266 0.117246
vt 0.583559 0.125009
vt 0.454456 0.615910
vt 0.103596 0.467772
vt 0.464009 0.593262
vt 0.113209 0.445123
vt 0.104073 0.439690
vt 0.095986 0.464550
vt 0.102972 0.448017
vt 0.093965 0.424861
vt 0.153176 0.384465
vt 0.212442 0.344140
vt 0.271714 0.303827
vt 0.330988 0.263513
vt 0.390277 0.223212
vt 0.449583 0.182940
vt 0.508880 0.142664
vt 0.568181 0.102400
vt 0.693645 0.050281
vt 0.627453 0.062077
vt 0.696901 0.036764
vt 0.686826 0.021903
vt 0.054916 0.416724
vt 0.053139 0.406549
vt 0.027241 0.407195
vt 0.017201 0.026172
vt 0.043069 0.025496
vt 0.124932 0.392122
vt 0.065788 0.432602
vt 0.027458 0.415153
vt 0.046698 0.414641
vt 0.184079 0.351635
vt 0.243226 0.311140
vt 0.302372 0.270634
vt 0.361511 0.230115
vt 0.420634 0.189578
vt 0.479745 0.149056
vt 0.538982 0.108688
vt 0.632410 0.009666
vt 0.646168 0.011481
vt 0.598174 0.068166
vt 0.657116 0.027326
vt 0.009666 0.696506
vt 0.061803 0.514682
vt 0.428193 0.619743
vt 0.375764 0.801484
vt 0.435845 0.621938
vt 0.383709 0.803763
vt 0.683131 0.755829
vt 0.716841 0.769081
vt 0.659206 0.812167
vt 0.484352 0.739835
vt 0.473996 0.668624
vt 0.507217 0.683059
vt 0.521406 0.650263
vt 0.696254 0.722588
vt 0.470234 0.772467
vt 0.646143 0.845238
vt 0.511059 0.579007
vt 0.544303 0.593395
vt 0.720220 0.666164
vt 0.753916 0.679464
vt 0.447417 0.829107
vt 0.437044 0.757964
vt 0.679878 0.858421
vt 0.622275 0.901444
vt 0.558538 0.560495
vt 0.733387 0.632820
vt 0.433401 0.861511
vt 0.609302 0.934281
vt 0.548204 0.489208
vt 0.581455 0.503581
vt 0.757372 0.576348
vt 0.791061 0.589665
vt 0.410605 0.917957
vt 0.400270 0.846890
vt 0.643079 0.947340
vt 0.585556 0.990334
vt 0.595706 0.470643
vt 0.770554 0.542967
vt 0.585373 0.399347
vt 0.618624 0.413724
vt 0.794542 0.486491
vt 0.828232 0.499804
vt 0.632863 0.380811
vt 0.807714 0.453135
vt 0.622531 0.309526
vt 0.655768 0.323933
vt 0.831685 0.396695
vt 0.865386 0.409980
vt 0.669964 0.291106
vt 0.844827 0.363432
vt 0.659634 0.219849
vt 0.692841 0.234310
vt 0.868754 0.307069
vt 0.902475 0.320290
vt 0.706965 0.201636
vt 0.881837 0.273963
vt 0.696629 0.130426
vt 0.729797 0.144966
vt 0.905706 0.217721
vt 0.939455 0.230859
vt 0.743822 0.112506
vt 0.918706 0.184838
vt 0.733476 0.041364
vt 0.766593 0.056006
vt 0.942497 0.128758
vt 0.976282 0.141786
vt 0.780547 0.023844
vt 0.955338 0.096136
# 116 polygons
usemtl initialShadingGroup
s off
g pPlane1
f 17/131/1 10/132/2 31/2/3 30/124/4
f 23/157/5 27/159/6 65/160/7 64/19/8
s 1
f 9/97/9 1/98/10 112/99/11 113/100/12
s off
f 10/132/13 8/129/14 28/1/15 31/2/16
f 30/124/17 29/123/18 24/117/19 17/120/20
f 17/120/21 24/117/22 32/3/23 35/4/24
f 34/112/25 33/111/26 25/106/27 11/105/28
f 11/105/29 25/106/30 36/5/31 39/6/32
f 38/103/33 37/108/34 7/109/35 12/110/36
f 12/110/37 7/109/38 40/7/39 43/8/40
f 42/115/41 41/114/42 6/121/43 13/122/44
f 13/122/45 6/121/46 44/9/47 47/10/48
f 46/127/49 45/126/50 5/133/51 22/134/52
f 22/134/53 5/133/54 48/11/55 51/12/56
f 50/137/57 49/136/58 4/139/59 21/140/60
f 21/140/61 4/139/62 52/13/63 55/14/64
f 54/143/65 53/142/66 3/145/67 20/146/68
f 20/146/69 3/145/70 56/15/71 59/16/72
f 58/149/73 57/148/74 2/151/75 19/152/76
f 19/152/77 2/151/78 60/17/79 63/18/80
f 62/155/81 61/154/82 23/157/83 18/158/84
f 18/158/85 23/157/86 64/19/87 67/20/88
f 66/161/89 65/160/90 27/163/91 14/164/92
s 1
f 9/57/9 113/58/12 101/60/93 15/59/94
f 83/78/95 112/79/11 1/80/10 16/81/96
s off
f 29/123/97 28/1/98 8/129/99 24/130/100
f 33/111/101 32/3/102 24/117/103 25/118/104
f 35/4/105 34/112/106 11/119/107 17/120/108
f 37/108/109 36/5/110 25/106/111 7/107/112
f 39/6/113 38/103/114 12/104/115 11/105/116
f 41/114/117 40/7/118 7/109/119 6/113/120
f 43/8/121 42/115/122 13/116/123 12/110/124
f 45/126/125 44/9/126 6/121/127 5/125/128
f 47/10/129 46/127/130 22/128/131 13/122/132
f 49/136/133 48/11/134 5/133/135 4/135/136
f 51/12/137 50/137/138 21/138/139 22/134/140
f 53/142/141 52/13/142 4/139/143 3/141/144
f 55/14/145 54/143/146 20/144/147 21/140/148
f 57/148/149 56/15/150 3/145/151 2/147/152
f 59/16/153 58/149/154 19/150/155 20/146/156
f 61/154/157 60/17/158 2/151/159 23/153/160
f 63/18/161 62/155/162 18/156/163 19/152/164
f 67/20/165 66/161/166 14/162/167 18/158/168
f 28/1/169 29/123/170 30/124/171 31/2/172
f 32/3/173 33/111/174 34/112/175 35/4/176
f 36/5/177 37/108/178 38/103/179 39/6/180
f 40/7/181 41/114/182 42/115/183 43/8/184
f 44/9/185 45/126/186 46/127/187 47/10/188
f 48/11/189 49/136/190 50/137/191 51/12/192
f 52/13/193 53/142/194 54/143/195 55/14/196
f 56/15/197 57/148/198 58/149/199 59/16/200
f 60/17/201 61/154/202 62/155/203 63/18/204
f 64/19/205 65/160/206 66/161/207 67/20/208
s 2
f 68/21/209 69/22/210 71/24/211 70/23/212
f 69/22/210 68/21/209 89/93/213 88/94/214
f 70/23/212 71/24/211 73/26/215 72/25/216
f 72/25/216 73/26/215 75/28/217 74/27/218
f 74/27/218 75/28/217 77/30/219 76/29/220
f 76/29/220 77/30/219 79/32/221 78/31/222
f 78/31/222 79/32/221 81/34/223 80/33/224
f 80/33/224 81/34/223 87/38/225 86/37/226
f 82/77/227 83/78/228 84/35/229 85/36/230
f 85/36/230 84/35/229 86/37/226 87/38/225
s 3
f 90/39/231 91/40/232 93/42/233 92/41/234
f 91/40/232 90/39/231 110/55/235 111/56/236
f 92/41/234 93/42/233 94/43/237 95/44/238
f 95/44/238 94/43/237 97/46/239 96/45/240
f 96/45/240 97/46/239 104/51/241 105/52/242
s 4
f 98/47/243 99/48/244 101/60/245 100/61/246
s 3
f 99/48/247 98/47/248 102/49/249 103/50/250
f 103/50/250 102/49/249 105/52/242 104/51/241
f 107/75/251 106/73/252 109/54/253 108/53/254
f 108/53/254 109/54/253 111/56/236 110/55/235
s 5
f 104/51/255 97/46/256 15/59/257
f 15/59/257 97/46/256 94/43/258
s 6
f 68/21/259 70/23/260 16/81/261
f 70/23/260 72/25/262 16/81/261
f 72/25/262 74/27/263 16/81/261
f 74/27/263 76/29/264 16/81/261
f 76/29/264 78/31/265 16/81/261
f 78/31/265 80/33/266 16/81/261
f 84/35/267 83/78/268 16/81/261
f 84/35/267 16/81/261 86/37/269
f 16/81/261 80/33/266 86/37/269
f 16/81/261 89/93/270 68/21/259
s 4
f 17/65/271 11/66/272 102/49/273 98/47/243
f 11/66/272 12/67/274 105/52/275 102/49/273
f 12/67/274 13/68/276 96/45/277 105/52/275
f 18/74/278 14/76/279 107/75/280 108/53/281
f 19/72/282 18/74/278 108/53/281 110/55/283
f 20/71/284 19/72/282 110/55/283 90/39/285
f 21/70/286 20/71/284 90/39/285 92/41/287
f 22/69/288 21/70/286 92/41/287 95/44/289
f 13/68/276 22/69/288 95/44/289 96/45/277
f 10/64/290 17/65/271 98/47/243 100/61/246
s 10
f 23/95/291 2/92/292 71/24/293 69/22/294
f 2/92/292 3/91/295 73/26/296 71/24/293
f 3/91/295 4/90/297 75/28/298 73/26/296
f 4/90/297 5/89/299 77/30/300 75/28/298
f 5/89/299 6/88/301 79/32/302 77/30/300
f 6/88/301 7/87/303 81/34/304 79/32/302
f 24/82/305 8/83/306 82/77/307 85/36/308
f 25/86/309 24/82/305 85/36/308 87/38/310
f 7/87/303 25/86/309 87/38/310 81/34/304
f 26/96/311 23/95/291 69/22/294 88/94/312
s 5
f 103/50/313 104/51/255 15/59/257
f 99/48/314 103/50/313 15/59/257
f 109/54/315 106/73/316 15/59/257
f 109/54/315 15/59/257 111/56/317
f 111/56/317 15/59/257 91/40/318
f 91/40/318 15/59/257 93/42/319
f 93/42/319 15/59/257 94/43/258
f 15/59/257 101/60/320 99/48/314
s 1
f 8/84/321 112/79/11 83/78/95 82/85/322
f 113/100/12 112/99/11 8/101/321 10/102/323
f 101/60/93 113/58/12 10/62/323 100/63/324
# h3dt: 113 164 324 116
