# This file uses centimeters as units for non-parametric coordinates.

mtllib CeramicRoundPot.mtl
g default
v 0.713626 0.732289 -0.597995
v 0.162510 0.732289 -0.916182
v -0.464195 0.732289 -0.805677
v -0.873248 0.732289 -0.318187
v -0.873248 0.732289 0.318187
v -0.464195 0.732289 0.805677
v 0.162510 0.732289 0.916182
v 0.713626 0.732289 0.597995
v 0.931278 0.732289 -0.000000
v 0.766045 1.000000 -0.642788
v 0.173648 1.000000 -0.984808
v -0.500000 1.000000 -0.866026
v -0.939693 1.000000 -0.342020
v -0.939693 1.000000 0.342020
v -0.500000 1.000000 0.866025
v 0.173648 1.000000 0.984808
v 0.766044 1.000000 0.642788
v 1.000000 1.000000 0.000000
v 0.739942 1.258819 -0.620885
v 0.167731 1.258819 -0.951251
v -0.482963 1.258819 -0.836516
v -0.907673 1.258819 -0.330366
v -0.907673 1.258819 0.330366
v -0.482963 1.258819 0.836516
v 0.167731 1.258819 0.951251
v 0.739942 1.258819 0.620885
v 0.965926 1.258819 0.000000
v 0.663414 1.500000 -0.556670
v 0.150384 1.500000 -0.852869
v -0.433013 1.500000 -0.750000
v -0.813798 1.500000 -0.296198
v -0.813798 1.500000 0.296198
v -0.433013 1.500000 0.750000
v 0.150384 1.500000 0.852869
v 0.663414 1.500000 0.556670
v 0.866025 1.500000 0.000000
v 0.541675 1.707107 -0.454519
v 0.122788 1.707107 -0.696364
v -0.353553 1.707107 -0.612373
v -0.664463 1.707107 -0.241845
v -0.664463 1.707107 0.241845
v -0.353553 1.707107 0.612372
v 0.122788 1.707107 0.696364
v 0.541675 1.707107 0.454519
v 0.707107 1.707107 0.000000
v 0.486502 1.707107 -0.411781
v 0.107002 1.707107 -0.630886
v -0.324549 1.707107 -0.554792
v -0.606224 1.707107 -0.219104
v -0.606224 1.707107 0.219104
v -0.324549 1.707107 0.554792
v 0.107002 1.707107 0.630886
v 0.486502 1.707107 0.411781
v 0.636378 1.707107 0.000000
v 0.600566 1.025159 -0.524582
v 0.117107 1.025159 -0.803706
v -0.432660 1.025159 -0.706766
v -0.791497 1.025159 -0.279124
v -0.791497 1.025159 0.279124
v -0.432660 1.025159 0.706766
v 0.117107 1.025159 0.803706
v 0.600566 1.025159 0.524582
v 0.791497 1.025159 0.000000
v 0.000000 0.500000 0.000000
v -0.601600 1.562623 0.347334
v 0.601600 1.556142 0.347334
v -0.000000 1.541834 -0.694668
v 0.000000 1.543916 0.727376
v 0.601600 1.525452 -0.347334
v -0.601600 1.560751 -0.347334
v -0.000000 1.544119 0.000000
v -0.694668 1.560751 0.000000
v -0.347334 1.609700 0.601600
v 0.000000 1.456460 0.347334
v -0.300800 1.458880 -0.173667
v -0.300800 1.549556 0.173667
v 0.365263 1.525452 0.601600
v 0.694668 1.556142 -0.000000
v 0.300800 1.652009 -0.173667
v 0.300800 1.544119 0.173667
v 0.347334 1.548792 -0.617105
v -0.347334 1.566185 -0.601600
v -0.000000 1.532291 -0.347334
v 0.510463 0.500000 -0.426729
v 0.665224 0.616091 -0.556985
v 0.117193 0.500000 -0.653820
v 0.151883 0.615864 -0.853228
v -0.330096 0.500000 -0.575047
v -0.431706 0.615674 -0.750226
v -0.622169 0.500000 -0.227145
v -0.812562 0.615590 -0.296272
v -0.622224 0.500000 0.227165
v -0.812537 0.615541 0.296262
v -0.330170 0.500000 0.575175
v -0.431706 0.615674 0.750226
v 0.117223 0.500000 0.653986
v 0.151883 0.615864 0.853228
v 0.510548 0.500000 0.426800
v 0.665186 0.615999 0.556953
v 0.665830 0.500000 -0.000000
v 0.867973 0.616133 -0.000000
vt 0.789372 0.328905
vt 0.000000 0.394686
vt 0.087708 0.394686
vt 0.175416 0.394686
vt 0.263124 0.394686
vt 0.350832 0.394686
vt 0.438540 0.394686
vt 0.526248 0.394686
vt 0.613956 0.394686
vt 0.701664 0.394686
vt 0.789372 0.394686
vt 0.000000 0.460467
vt 0.087708 0.460467
vt 0.175416 0.460467
vt 0.263124 0.460467
vt 0.350832 0.460467
vt 0.438540 0.460467
vt 0.526248 0.460467
vt 0.613956 0.460467
vt 0.701664 0.460467
vt 0.789372 0.460467
vt 0.000000 0.526248
vt 0.087708 0.526248
vt 0.175416 0.526248
vt 0.263124 0.526248
vt 0.350832 0.526248
vt 0.438540 0.526248
vt 0.526248 0.526248
vt 0.613956 0.526248
vt 0.701664 0.526248
vt 0.789372 0.526248
vt 0.000000 0.592029
vt 0.087708 0.592029
vt 0.175416 0.592029
vt 0.263124 0.592029
vt 0.350832 0.592029
vt 0.438540 0.592029
vt 0.526248 0.592029
vt 0.613956 0.592029
vt 0.701664 0.592029
vt 0.789372 0.592029
vt 0.000000 0.657810
vt 0.087708 0.657810
vt 0.175416 0.657810
vt 0.263124 0.657810
vt 0.350832 0.657810
vt 0.438540 0.657810
vt 0.526248 0.657810
vt 0.613956 0.657810
vt 0.701664 0.657810
vt 0.789372 0.657810
vt 0.000000 0.723591
vt 0.087708 0.723591
vt 0.175416 0.723591
vt 0.263124 0.723591
vt 0.350832 0.723591
vt 0.438540 0.723591
vt 0.526248 0.723591
vt 0.613956 0.723591
vt 0.701664 0.723591
vt 0.789372 0.723591
vt 0.078360 0.896346
vt 0.018516 0.930898
vt 0.000000 0.861795
vt 0.078360 0.827244
vt 0.018516 0.792693
vt 0.069102 0.742106
vt 0.138205 0.723590
vt 0.138205 0.792693
vt 0.138205 0.861795
vt 0.207307 0.742106
vt 0.198049 0.827244
vt 0.257894 0.792693
vt 0.276410 0.861795
vt 0.257894 0.930898
vt 0.198049 0.896346
vt 0.207307 0.981484
vt 0.138205 0.930898
vt 0.138205 1.000000
vt 0.069102 0.981484
vt 0.781766 0.217705
vt 0.000000 0.295999
vt 0.080076 0.217665
vt 0.167784 0.217620
vt 0.255516 0.217592
vt 0.343244 0.217594
vt 0.430957 0.217626
vt 0.518673 0.217671
vt 0.606387 0.217709
vt 0.694097 0.217721
vt 0.043854 -0.000000
vt 0.007575 0.217673
vt 0.131562 -0.000000
vt 0.095293 0.217616
vt 0.219270 -0.000000
vt 0.183007 0.217577
vt 0.306978 -0.000000
vt 0.270716 0.217575
vt 0.394686 -0.000000
vt 0.358437 0.217611
vt 0.482394 -0.000000
vt 0.446164 0.217669
vt 0.570102 -0.000000
vt 0.533870 0.217720
vt 0.657810 -0.000000
vt 0.621556 0.217741
vt 0.745518 -0.000000
vt 0.709231 0.217721
vt 0.087708 0.295935
vt 0.000000 0.328905
vt 0.175416 0.295881
vt 0.087708 0.328905
vt 0.263124 0.295857
vt 0.175416 0.328905
vt 0.350832 0.295844
vt 0.263124 0.328905
vt 0.438540 0.295881
vt 0.350832 0.328905
vt 0.526248 0.295935
vt 0.438540 0.328905
vt 0.613956 0.295973
vt 0.526248 0.328905
vt 0.701664 0.296011
vt 0.613956 0.328905
vt 0.789372 0.295999
vt 0.701664 0.328905
vn 0.727283 -0.314428 -0.610078
vn 0.164943 -0.316338 -0.934197
vn 0.172919 -0.062713 -0.982938
vn 0.764420 -0.061703 -0.641759
vn -0.473783 -0.318498 -0.821029
vn -0.499279 -0.063860 -0.864085
vn -0.890287 -0.319901 -0.324119
vn -0.937776 -0.064607 -0.341177
vn -0.890282 -0.319905 0.324127
vn -0.937776 -0.064607 0.341177
vn -0.473791 -0.318502 0.821023
vn -0.499279 -0.063860 0.864085
vn 0.164959 -0.316347 0.934191
vn 0.172919 -0.062713 0.982938
vn 0.727278 -0.314446 0.610074
vn 0.764420 -0.061703 0.641760
vn 0.949528 -0.313682 0.000017
vn 0.998119 -0.061303 0.000000
vn 0.168267 0.247016 -0.954290
vn 0.742306 0.247016 -0.622868
vn -0.484506 0.247016 -0.839189
vn -0.910573 0.247016 -0.331421
vn -0.910573 0.247016 0.331421
vn -0.484506 0.247016 0.839189
vn 0.168267 0.247016 0.954290
vn 0.742306 0.247016 0.622869
vn 0.969012 0.247016 0.000000
vn 0.152462 0.478677 -0.864652
vn 0.672580 0.478677 -0.564362
vn -0.438995 0.478677 -0.760363
vn -0.825042 0.478677 -0.300291
vn -0.825042 0.478677 0.300291
vn -0.438996 0.478677 0.760363
vn 0.152461 0.478677 0.864652
vn 0.672580 0.478677 0.564362
vn 0.877991 0.478677 0.000000
vn 0.125371 0.691913 -0.711012
vn 0.551138 0.694534 -0.462460
vn -0.362463 0.688827 -0.627804
vn -0.683060 0.686746 -0.248614
vn -0.683060 0.686747 0.248613
vn -0.362463 0.688828 0.627804
vn 0.125371 0.691913 0.711012
vn 0.551138 0.694534 0.462460
vn 0.718481 0.695547 0.000000
vn -0.177581 -0.144678 0.973413
vn -0.762673 -0.123307 0.634922
vn 0.488416 -0.168783 0.856132
vn 0.922898 -0.184382 0.338029
vn 0.922898 -0.184382 -0.338029
vn 0.488416 -0.168783 -0.856132
vn -0.177581 -0.144678 -0.973413
vn -0.762673 -0.123307 -0.634922
vn -0.993385 -0.114830 -0.000000
vn -0.162083 -0.244664 0.955965
vn -0.743112 -0.228337 0.629004
vn 0.487247 -0.262832 0.832772
vn 0.904356 -0.274461 0.326821
vn 0.904356 -0.274461 -0.326821
vn 0.487248 -0.262832 -0.832772
vn -0.162083 -0.244664 -0.955965
vn -0.743112 -0.228337 -0.629004
vn -0.975092 -0.221800 -0.000000
vn 0.046844 0.997859 0.045635
vn 0.128947 0.989081 0.071356
vn 0.140891 0.985617 -0.093321
vn 0.115666 0.989984 -0.080950
vn -0.002643 0.996825 -0.079581
vn 0.213926 0.967660 -0.133681
vn 0.090560 0.988898 -0.117808
vn 0.042480 0.998009 -0.046617
vn -0.157262 0.984176 0.081653
vn -0.110705 0.992855 -0.044527
vn -0.052021 0.994685 0.088862
vn -0.052660 0.998368 0.022096
vn 0.121280 0.990620 0.062954
vn 0.105026 0.991383 -0.078294
vn 0.005580 0.999828 -0.017676
vn 0.015816 0.989136 -0.146147
vn -0.074711 0.997205 -0.001169
vn 0.025632 0.999294 0.027456
vn 0.039605 0.984362 0.171649
vn 0.218266 -0.958592 -0.182922
vn 0.540436 -0.708807 -0.453346
vn 0.705737 -0.708474 -0.000013
vn 0.284872 -0.958566 -0.000053
vn 0.049687 -0.958679 -0.280119
vn 0.122533 -0.709548 -0.693922
vn -0.141913 -0.958755 -0.246273
vn -0.351802 -0.710313 -0.609664
vn -0.266941 -0.958790 -0.097284
vn -0.660990 -0.710757 -0.240660
vn -0.266951 -0.958793 0.097232
vn -0.661034 -0.710718 0.240652
vn -0.141929 -0.958745 0.246302
vn -0.351886 -0.710165 0.609788
vn 0.049662 -0.958672 0.280145
vn 0.122567 -0.709371 0.694097
vn 0.218240 -0.958609 0.182866
vn 0.540519 -0.708713 0.453393
vn 0.000000 -1.000000 -0.000000
s 1
g CeramicPot
usemtl initialShadingGroup
f 1/110/1 2/112/2 11/3/3 10/2/4
f 2/112/2 3/114/5 12/4/6 11/3/3
f 3/114/5 4/116/7 13/5/8 12/4/6
f 4/116/7 5/118/9 14/6/10 13/5/8
f 5/118/9 6/120/11 15/7/12 14/6/10
f 6/120/11 7/122/13 16/8/14 15/7/12
f 7/122/13 8/124/15 17/9/16 16/8/14
f 8/124/15 9/126/17 18/10/18 17/9/16
f 9/126/17 1/1/1 10/11/4 18/10/18
f 10/2/4 11/3/3 20/13/19 19/12/20
f 11/3/3 12/4/6 21/14/21 20/13/19
f 12/4/6 13/5/8 22/15/22 21/14/21
f 13/5/8 14/6/10 23/16/23 22/15/22
f 14/6/10 15/7/12 24/17/24 23/16/23
f 15/7/12 16/8/14 25/18/25 24/17/24
f 16/8/14 17/9/16 26/19/26 25/18/25
f 17/9/16 18/10/18 27/20/27 26/19/26
f 18/10/18 10/11/4 19/21/20 27/20/27
f 19/12/20 20/13/19 29/23/28 28/22/29
f 20/13/19 21/14/21 30/24/30 29/23/28
f 21/14/21 22/15/22 31/25/31 30/24/30
f 22/15/22 23/16/23 32/26/32 31/25/31
f 23/16/23 24/17/24 33/27/33 32/26/32
f 24/17/24 25/18/25 34/28/34 33/27/33
f 25/18/25 26/19/26 35/29/35 34/28/34
f 26/19/26 27/20/27 36/30/36 35/29/35
f 27/20/27 19/21/20 28/31/29 36/30/36
f 28/22/29 29/23/28 38/33/37 37/32/38
f 29/23/28 30/24/30 39/34/39 38/33/37
f 30/24/30 31/25/31 40/35/40 39/34/39
f 31/25/31 32/26/32 41/36/41 40/35/40
f 32/26/32 33/27/33 42/37/42 41/36/41
f 33/27/33 34/28/34 43/38/43 42/37/42
f 34/28/34 35/29/35 44/39/44 43/38/43
f 35/29/35 36/30/36 45/40/45 44/39/44
f 36/30/36 28/31/29 37/41/38 45/40/45
f 37/32/38 38/33/37 47/43/46 46/42/47
f 38/33/37 39/34/39 48/44/48 47/43/46
f 39/34/39 40/35/40 49/45/49 48/44/48
f 40/35/40 41/36/41 50/46/50 49/45/49
f 41/36/41 42/37/42 51/47/51 50/46/50
f 42/37/42 43/38/43 52/48/52 51/47/51
f 43/38/43 44/39/44 53/49/53 52/48/52
f 44/39/44 45/40/45 54/50/54 53/49/53
f 45/40/45 37/41/38 46/51/47 54/50/54
f 46/42/47 47/43/46 56/53/55 55/52/56
f 47/43/46 48/44/48 57/54/57 56/53/55
f 48/44/48 49/45/49 58/55/58 57/54/57
f 49/45/49 50/46/50 59/56/59 58/55/58
f 50/46/50 51/47/51 60/57/60 59/56/59
f 51/47/51 52/48/52 61/58/61 60/57/60
f 52/48/52 53/49/53 62/59/62 61/58/61
f 53/49/53 54/50/54 63/60/63 62/59/62
f 54/50/54 46/51/47 55/61/56 63/60/63
s 2
f 75/62/64 70/63/65 72/64/66 76/65/67
f 72/64/66 65/66/68 73/67/69 76/65/67
f 73/67/69 68/68/70 74/69/71 76/65/67
f 74/69/71 71/70/72 75/62/64 76/65/67
f 74/69/71 68/68/70 77/71/73 80/72/74
f 77/71/73 66/73/75 78/74/76 80/72/74
f 78/74/76 69/75/77 79/76/78 80/72/74
f 79/76/78 71/70/72 74/69/71 80/72/74
f 79/76/78 69/75/77 81/77/79 83/78/80
f 81/77/79 67/79/81 82/80/82 83/78/80
f 82/80/82 70/63/65 75/62/64 83/78/80
f 75/62/64 71/70/72 79/76/78 83/78/80
s 1
f 84/81/83 85/125/84 101/123/85 100/108/86
f 85/82/84 84/92/83 86/83/87 87/109/88
f 87/109/88 86/94/87 88/84/89 89/111/90
f 89/111/90 88/96/89 90/85/91 91/113/92
f 91/113/92 90/98/91 92/86/93 93/115/94
f 93/115/94 92/100/93 94/87/95 95/117/96
f 95/117/96 94/102/95 96/88/97 97/119/98
f 97/119/98 96/104/97 98/89/99 99/121/100
f 99/121/100 98/106/99 100/90/86 101/123/85
f 64/91/101 86/83/87 84/92/83
f 64/93/101 88/84/89 86/94/87
f 64/95/101 90/85/91 88/96/89
f 64/97/101 92/86/93 90/98/91
f 64/99/101 94/87/95 92/100/93
f 64/101/101 96/88/97 94/102/95
f 64/103/101 98/89/99 96/104/97
f 64/105/101 100/90/86 98/106/99
f 64/107/101 84/81/83 100/108/86
f 85/82/84 87/109/88 2/112/2 1/110/1
f 87/109/88 89/111/90 3/114/5 2/112/2
f 89/111/90 91/113/92 4/116/7 3/114/5
f 91/113/92 93/115/94 5/118/9 4/116/7
f 93/115/94 95/117/96 6/120/11 5/118/9
f 95/117/96 97/119/98 7/122/13 6/120/11
f 97/119/98 99/121/100 8/124/15 7/122/13
f 99/121/100 101/123/85 9/126/17 8/124/15
f 101/123/85 85/125/84 1/1/1 9/126/17
